<svg width="17" height="17" viewBox="0 0 17 17" fill="none" xmlns="http://www.w3.org/2000/svg">
<path d="M5.66669 1.41669V3.54169" stroke="#1A2223" stroke-miterlimit="10" stroke-linecap="round" stroke-linejoin="round"/>
<path d="M11.3333 1.41669V3.54169" stroke="#1A2223" stroke-miterlimit="10" stroke-linecap="round" stroke-linejoin="round"/>
<path d="M2.47919 6.43872H14.5209" stroke="#1A2223" stroke-miterlimit="10" stroke-linecap="round" stroke-linejoin="round"/>
<path d="M12.75 16.2917C14.3148 16.2917 15.5834 15.0231 15.5834 13.4583C15.5834 11.8935 14.3148 10.625 12.75 10.625C11.1852 10.625 9.91669 11.8935 9.91669 13.4583C9.91669 15.0231 11.1852 16.2917 12.75 16.2917Z" stroke="#1A2223" stroke-miterlimit="10" stroke-linecap="round" stroke-linejoin="round"/>
<path d="M13.5079 14.2446L12.0062 12.75" stroke="#1A2223" stroke-miterlimit="10" stroke-linecap="round" stroke-linejoin="round"/>
<path d="M13.4937 12.7642L11.9921 14.2658" stroke="#1A2223" stroke-miterlimit="10" stroke-linecap="round" stroke-linejoin="round"/>
<path d="M14.875 6.02085V11.5883C14.3579 11.0004 13.6 10.625 12.75 10.625C11.1846 10.625 9.91667 11.8929 9.91667 13.4584C9.91667 13.9896 10.0654 14.4925 10.3275 14.9175C10.4763 15.1725 10.6675 15.3992 10.8871 15.5834H5.66667C3.1875 15.5834 2.125 14.1667 2.125 12.0417V6.02085C2.125 3.89585 3.1875 2.47919 5.66667 2.47919H11.3333C13.8125 2.47919 14.875 3.89585 14.875 6.02085Z" stroke="#1A2223" stroke-miterlimit="10" stroke-linecap="round" stroke-linejoin="round"/>
<path d="M8.49682 9.7042H8.50318" stroke="#1A2223" stroke-width="1.5" stroke-linecap="round" stroke-linejoin="round"/>
<path d="M5.87512 9.7042H5.88148" stroke="#1A2223" stroke-width="1.5" stroke-linecap="round" stroke-linejoin="round"/>
<path d="M5.87512 11.8292H5.88148" stroke="#1A2223" stroke-width="1.5" stroke-linecap="round" stroke-linejoin="round"/>
</svg>
