<svg width="24" height="24" viewBox="0 0 24 24" fill="none" xmlns="http://www.w3.org/2000/svg">
<path d="M8 2V5" stroke="#1A2223" stroke-width="1.5" stroke-miterlimit="10" stroke-linecap="round" stroke-linejoin="round"/>
<path d="M16 2V5" stroke="#1A2223" stroke-width="1.5" stroke-miterlimit="10" stroke-linecap="round" stroke-linejoin="round"/>
<path d="M3.5 9.09H20.5" stroke="#1A2223" stroke-width="1.5" stroke-miterlimit="10" stroke-linecap="round" stroke-linejoin="round"/>
<path d="M22.1667 19C22.1667 21.3 20.3 23.1667 18 23.1667C15.7 23.1667 13.8334 21.3 13.8334 19C13.8334 16.7 15.7 14.8333 18 14.8333C20.3 14.8333 22.1667 16.7 22.1667 19Z" stroke="#1A2223" stroke-width="1.5" stroke-linecap="round" stroke-linejoin="round"/>
<path d="M19.5458 20.325L18.2541 19.5542C18.0291 19.4208 17.8458 19.1 17.8458 18.8375V17.1292" stroke="#1A2223" stroke-width="1.5" stroke-linecap="round" stroke-linejoin="round"/>
<path d="M21 8.5V16.36C20.27 15.53 19.2 15 18 15C15.79 15 14 16.79 14 19C14 19.75 14.21 20.46 14.58 21.06C14.79 21.42 15.06 21.74 15.37 22H8C4.5 22 3 20 3 17V8.5C3 5.5 4.5 3.5 8 3.5H16C19.5 3.5 21 5.5 21 8.5Z" stroke="#1A2223" stroke-width="1.5" stroke-miterlimit="10" stroke-linecap="round" stroke-linejoin="round"/>
<path d="M11.9955 13.7H12.0045" stroke="#1A2223" stroke-width="2" stroke-linecap="round" stroke-linejoin="round"/>
<path d="M8.29431 13.7H8.30329" stroke="#1A2223" stroke-width="2" stroke-linecap="round" stroke-linejoin="round"/>
<path d="M8.29431 16.7H8.30329" stroke="#1A2223" stroke-width="2" stroke-linecap="round" stroke-linejoin="round"/>
</svg>
