<svg width="210" height="88" viewBox="0 0 210 88" fill="none" xmlns="http://www.w3.org/2000/svg">
<path d="M189 4H21C12.1634 4 5 11.1634 5 20V68C5 76.8366 12.1634 84 21 84H189C197.837 84 205 76.8366 205 68V20C205 11.1634 197.837 4 189 4Z" fill="#F0FDFA" stroke="#CCFBF1" stroke-width="1.2"/>
<rect x="21" y="20" width="48" height="48" rx="15" fill="#FFFFFF" stroke="#99F6E4" stroke-width="1.2"/>
<path d="M45 30L56 35V45C56 52 50.5 57 45 58.5C39.5 57 34 52 34 45V35Z" fill="#00AA13"/>
<path d="M39.5 44L43.5 48L50.5 41" stroke="white" stroke-width="2.8" stroke-linecap="round" stroke-linejoin="round"/>
<g transform="translate(4, 4)">
<path d="M79.4148 40V37.3409L85.6278 31.5881C86.1563 31.0767 86.5994 30.6165 86.9574 30.2074C87.321 29.7983 87.5966 29.3977 87.7841 29.0057C87.9716 28.608 88.0653 28.179 88.0653 27.7188C88.0653 27.2074 87.9489 26.767 87.7159 26.3977C87.483 26.0227 87.1648 25.7358 86.7614 25.5369C86.358 25.3324 85.9006 25.2301 85.3892 25.2301C84.8551 25.2301 84.3892 25.3381 83.9915 25.554C83.5938 25.7699 83.2869 26.0795 83.071 26.483C82.8551 26.8864 82.7472 27.3665 82.7472 27.9233H79.2443C79.2443 26.7812 79.5028 25.7898 80.0199 24.9489C80.5369 24.108 81.2614 23.4574 82.1932 22.9972C83.125 22.5369 84.1989 22.3068 85.4148 22.3068C86.6648 22.3068 87.7528 22.5284 88.679 22.9716C89.6108 23.4091 90.3352 24.017 90.8523 24.7955C91.3693 25.5739 91.6278 26.4659 91.6278 27.4716C91.6278 28.1307 91.4972 28.7812 91.2358 29.4233C90.9801 30.0653 90.5227 30.7784 89.8636 31.5625C89.2045 32.3409 88.2756 33.2756 87.0767 34.3665L84.5284 36.8636V36.983H91.858V40H79.4148ZM101.376 40.3835C99.9098 40.3778 98.6484 40.017 97.5916 39.3011C96.5405 38.5852 95.7308 37.5483 95.1626 36.1903C94.6001 34.8324 94.3217 33.1989 94.3274 31.2898C94.3274 29.3864 94.6087 27.7642 95.1712 26.4233C95.7393 25.0824 96.549 24.0625 97.6001 23.3636C98.657 22.6591 99.9155 22.3068 101.376 22.3068C102.836 22.3068 104.092 22.6591 105.143 23.3636C106.2 24.0682 107.012 25.0909 107.58 26.4318C108.148 27.767 108.43 29.3864 108.424 31.2898C108.424 33.2045 108.14 34.8409 107.572 36.1989C107.009 37.5568 106.202 38.5937 105.151 39.3097C104.1 40.0256 102.842 40.3835 101.376 40.3835ZM101.376 37.3239C102.376 37.3239 103.174 36.821 103.771 35.8153C104.367 34.8097 104.663 33.3011 104.657 31.2898C104.657 29.9659 104.521 28.8636 104.248 27.983C103.981 27.1023 103.6 26.4403 103.106 25.9972C102.617 25.554 102.04 25.3324 101.376 25.3324C100.381 25.3324 99.5859 25.8295 98.9893 26.8239C98.3928 27.8182 98.0916 29.3068 98.0859 31.2898C98.0859 32.6307 98.2195 33.75 98.4865 34.6477C98.7592 35.5398 99.1428 36.2102 99.6371 36.6591C100.131 37.1023 100.711 37.3239 101.376 37.3239Z" fill="#0F172A"/>
<path d="M78.3906 52.3945V51H84.9609V52.3945H82.5117V59H80.8398V52.3945H78.3906ZM93.0293 55C93.0293 55.8724 92.8639 56.6146 92.5332 57.2266C92.2051 57.8385 91.7572 58.306 91.1895 58.6289C90.6243 58.9492 89.9889 59.1094 89.2832 59.1094C88.5723 59.1094 87.9342 58.9479 87.3691 58.625C86.804 58.3021 86.3574 57.8346 86.0293 57.2227C85.7012 56.6107 85.5371 55.8698 85.5371 55C85.5371 54.1276 85.7012 53.3854 86.0293 52.7734C86.3574 52.1615 86.804 51.6953 87.3691 51.375C87.9342 51.0521 88.5723 50.8906 89.2832 50.8906C89.9889 50.8906 90.6243 51.0521 91.1895 51.375C91.7572 51.6953 92.2051 52.1615 92.5332 52.7734C92.8639 53.3854 93.0293 54.1276 93.0293 55ZM91.3145 55C91.3145 54.4349 91.2298 53.9583 91.0605 53.5703C90.8939 53.1823 90.6582 52.888 90.3535 52.6875C90.0488 52.487 89.6921 52.3867 89.2832 52.3867C88.8743 52.3867 88.5176 52.487 88.2129 52.6875C87.9082 52.888 87.6712 53.1823 87.502 53.5703C87.3353 53.9583 87.252 54.4349 87.252 55C87.252 55.5651 87.3353 56.0417 87.502 56.4297C87.6712 56.8177 87.9082 57.112 88.2129 57.3125C88.5176 57.513 88.8743 57.6133 89.2832 57.6133C89.6921 57.6133 90.0488 57.513 90.3535 57.3125C90.6582 57.112 90.8939 56.8177 91.0605 56.4297C91.2298 56.0417 91.3145 55.5651 91.3145 55ZM93.6123 52.3945V51H100.183V52.3945H97.7334V59H96.0615V52.3945H93.6123ZM101.666 59H99.8535L102.615 51H104.795L107.553 59H105.74L103.736 52.8281H103.674L101.666 59ZM101.553 55.8555H105.834V57.1758H101.553V55.8555ZM108.516 59V51H110.207V57.6055H113.637V59H108.516ZM117.303 59V51H118.994V54.3008H122.428V51H124.115V59H122.428V55.6953H118.994V59H117.303ZM126.889 59H125.076L127.838 51H130.018L132.775 59H130.963L128.959 52.8281H128.896L126.889 59ZM126.775 55.8555H131.057V57.1758H126.775V55.8555ZM136.574 59H133.738V51H136.598C137.402 51 138.095 51.1602 138.676 51.4805C139.257 51.7982 139.703 52.2552 140.016 52.8516C140.331 53.4479 140.488 54.1615 140.488 54.9922C140.488 55.8255 140.331 56.5417 140.016 57.1406C139.703 57.7396 139.254 58.1992 138.668 58.5195C138.085 58.8398 137.387 59 136.574 59ZM135.43 57.5508H136.504C137.004 57.5508 137.424 57.4622 137.766 57.2852C138.109 57.1055 138.367 56.8281 138.539 56.4531C138.714 56.0755 138.801 55.5885 138.801 54.9922C138.801 54.401 138.714 53.918 138.539 53.543C138.367 53.168 138.111 52.8919 137.77 52.7148C137.428 52.5378 137.008 52.4492 136.508 52.4492H135.43V57.5508ZM143.433 51V59H141.741V51H143.433ZM144.824 59V51H147.98C148.585 51 149.1 51.1081 149.527 51.3242C149.957 51.5378 150.284 51.8411 150.508 52.2344C150.734 52.625 150.848 53.0846 150.848 53.6133C150.848 54.1445 150.733 54.6016 150.504 54.9844C150.275 55.3646 149.943 55.6562 149.508 55.8594C149.076 56.0625 148.552 56.1641 147.938 56.1641H145.824V54.8047H147.664C147.987 54.8047 148.255 54.7604 148.469 54.6719C148.682 54.5833 148.841 54.4505 148.945 54.2734C149.052 54.0964 149.105 53.8763 149.105 53.6133C149.105 53.3477 149.052 53.1237 148.945 52.9414C148.841 52.7591 148.681 52.6211 148.465 52.5273C148.251 52.431 147.982 52.3828 147.656 52.3828H146.516V59H144.824ZM149.145 55.3594L151.133 59H149.266L147.32 55.3594H149.145Z" fill="#64748B"/>
</g>
</svg>
